<?xml version="1.0" encoding="UTF-8"?>
<svg xmlns="http://www.w3.org/2000/svg" style="display: none;">
  <symbol id="aurora-theme-icon-menu" viewBox="0 0 24 24">
    <g fill="none">
      <path d="M4 6h16M4 12h16M4 18h7" stroke="currentColor" stroke-width="2" stroke-linecap="round" stroke-linejoin="round"></path>
    </g>
  </symbol>

  <symbol id="aurora-theme-icon-user" viewBox="0 0 32 32">
    >
    <g fill="currentColor">
      <path d="M27.711,21.887C25.332,21.026,21.368,20,16,20s-9.332,1.026-11.711,1.887 C2.322,22.598,1,24.486,1,26.587V31c0,0.552,0.448,1,1,1h28c0.552,0,1-0.448,1-1v-4.413C31,24.486,29.678,22.598,27.711,21.887z"></path>
      <path fill="currentColor" d="M16,18c4.411,0,8-3.589,8-8V8c0-4.411-3.589-8-8-8S8,3.589,8,8v2C8,14.411,11.589,18,16,18z"></path>
    </g>
  </symbol>

  <symbol id="aurora-theme-icon-gear" viewBox="0 0 32 32">
    <g fill="currentColor">
      <path d="M30.735,20.7,27.5,18.318a11.756,11.756,0,0,0,0-4.638L30.735,11.3A1,1,0,0,0,31.009,10L28.7,6a1,1,0,0,0-1.268-.417L23.747,7.2a11.694,11.694,0,0,0-4-2.317L19.3.89A1,1,0,0,0,18.305,0H13.7A1,1,0,0,0,12.7.89l-.444,4a11.694,11.694,0,0,0-4,2.317L4.564,5.586A1,1,0,0,0,3.3,6L.991,10A1,1,0,0,0,1.265,11.3L4.5,13.682a11.766,11.766,0,0,0,0,4.64L1.266,20.7A1,1,0,0,0,.991,22L3.3,26a1,1,0,0,0,1.267.416L8.253,24.8a11.694,11.694,0,0,0,4,2.317l.444,4A1,1,0,0,0,13.7,32h4.61a1,1,0,0,0,.994-.89l.444-4a11.676,11.676,0,0,0,4-2.316l3.689,1.618A1,1,0,0,0,28.7,26l2.3-4A1,1,0,0,0,30.735,20.7ZM16,21a5,5,0,1,1,5-5A5,5,0,0,1,16,21Z" fill="currentColor"></path>
    </g>
  </symbol>

  <symbol id="aurora-theme-icon-wrench" viewBox="0 0 32 32">
    <g fill="currentColor">
      <path d="M30.359,6,25.55,10.81,21.191,6.451,26,1.643A8.173,8.173,0,0,0,15.275,12.3L1.381,24.21a1.09,1.09,0,0,0-.062,1.6l4.874,4.874a1.09,1.09,0,0,0,1.6-.061L19.7,16.726A8.173,8.173,0,0,0,30.359,6Z" fill="currentColor"></path>
    </g>
  </symbol>

  <symbol id="aurora-theme-icon-group" viewBox="0 0 32 32">
    <g fill="currentColor">
      <path d="M31,0H14c-0.552,0-1,0.448-1,1v16.081L19,12h12c0.552,0,1-0.448,1-1V1 C32,0.448,31.552,0,31,0z"></path>
      <circle fill="currentColor" cx="25" cy="18" r="4"></circle>
      <circle fill="currentColor" cx="7" cy="18" r="4"></circle>
      <path fill="currentColor" d="M12.525,25.433C11.421,24.779,9.565,24,7,24c-2.6,0-4.446,0.776-5.538,1.429C0.561,25.968,0,26.955,0,28.007 V31h14v-2.982C14,26.96,13.435,25.97,12.525,25.433z"></path>
      <path fill="currentColor" d="M30.525,25.433C29.421,24.779,27.565,24,25,24c-2.6,0-4.446,0.776-5.538,1.429 C18.561,25.968,18,26.955,18,28.007V31h14v-2.982C32,26.96,31.435,25.97,30.525,25.433z"></path>
    </g>
  </symbol>

  <symbol id="aurora-theme-icon-search" viewBox="0 0 512 512">
    <path d="M456.69 421.39L362.6 327.3a173.81 173.81 0 0034.84-104.58C397.44 126.38 319.06 48 222.72 48S48 126.38 48 222.72s78.38 174.72 174.72 174.72A173.81 173.81 0 00327.3 362.6l94.09 94.09a25 25 0 0035.3-35.3zM97.92 222.72a124.8 124.8 0 11124.8 124.8 124.95 124.95 0 01-124.8-124.8z" />
  </symbol>
</svg>